{
   "accessors" : [
      {
         "bufferView" : 2,
         "byteOffset" : 0,
         "componentType" : 5126,
         "count" : 5280,
         "max" : [ 1, 0.7372047901153564, 0.8277258276939392, 1 ],
         "min" : [ 5.692175545846112e-05, 0.05284162610769272, 0.01188133470714092, 1 ],
         "name" : "accessor_color_m0-PolyPaper21_-345380",
         "type" : "VEC4"
      },
      {
         "bufferView" : 2,
         "byteOffset" : 84480,
         "componentType" : 5126,
         "count" : 3600,
         "max" : [ 0.729918897151947, 0.5542271137237549, 0.7893137335777283, 1 ],
         "min" : [ 5.692175545846112e-05, 0.08919350802898407, 0.05459228157997131, 1 ],
         "name" : "accessor_color_m1-PolyPaper9_-345386",
         "type" : "VEC4"
      },
      {
         "bufferView" : 2,
         "byteOffset" : 142080,
         "componentType" : 5126,
         "count" : 3048,
         "max" : [ 0.2631747424602509, 0.5542271137237549, 0.7893137335777283, 1 ],
         "min" : [ 5.692175545846112e-05, 0.08919350802898407, 0.06190747767686844, 1 ],
         "name" : "accessor_color_m2-PolyPaper9_-345392",
         "type" : "VEC4"
      },
      {
         "bufferView" : 2,
         "byteOffset" : 190848,
         "componentType" : 5126,
         "count" : 3048,
         "max" : [ 5.692175545846112e-05, 0.3344578146934509, 0.7893137335777283, 1 ],
         "min" : [ 5.692175545846112e-05, 0.3344578146934509, 0.7893137335777283, 1 ],
         "name" : "accessor_color_m3-PolyPaper5_-345398",
         "type" : "VEC4"
      },
      {
         "bufferView" : 2,
         "byteOffset" : 239616,
         "componentType" : 5126,
         "count" : 3480,
         "max" : [ 5.692175545846112e-05, 0.3344578146934509, 0.7893137335777283, 1 ],
         "min" : [ 5.692175545846112e-05, 0.3344578146934509, 0.7893137335777283, 1 ],
         "name" : "accessor_color_m4-PolyPaper5_-345404",
         "type" : "VEC4"
      },
      {
         "bufferView" : 0,
         "byteOffset" : 0,
         "componentType" : 5123,
         "count" : 7914,
         "max" : [ 5279 ],
         "min" : [ 0 ],
         "name" : "accessor_indices_0_m0-PolyPaper21_-345380",
         "type" : "SCALAR"
      },
      {
         "bufferView" : 0,
         "byteOffset" : 15828,
         "componentType" : 5123,
         "count" : 5400,
         "max" : [ 3599 ],
         "min" : [ 0 ],
         "name" : "accessor_indices_0_m1-PolyPaper9_-345386",
         "type" : "SCALAR"
      },
      {
         "bufferView" : 0,
         "byteOffset" : 26628,
         "componentType" : 5123,
         "count" : 4572,
         "max" : [ 3047 ],
         "min" : [ 0 ],
         "name" : "accessor_indices_0_m2-PolyPaper9_-345392",
         "type" : "SCALAR"
      },
      {
         "bufferView" : 0,
         "byteOffset" : 35772,
         "componentType" : 5123,
         "count" : 4572,
         "max" : [ 3047 ],
         "min" : [ 0 ],
         "name" : "accessor_indices_0_m3-PolyPaper5_-345398",
         "type" : "SCALAR"
      },
      {
         "bufferView" : 0,
         "byteOffset" : 44916,
         "componentType" : 5123,
         "count" : 5220,
         "max" : [ 3479 ],
         "min" : [ 0 ],
         "name" : "accessor_indices_0_m4-PolyPaper5_-345404",
         "type" : "SCALAR"
      },
      {
         "bufferView" : 1,
         "byteOffset" : 63360,
         "componentType" : 5126,
         "count" : 5280,
         "max" : [ 0.9984203, 0.9999141, 0.9983773 ],
         "min" : [ -0.9984204, -0.9999141, -0.9983773 ],
         "name" : "accessor_normal_m0-PolyPaper21_-345380",
         "type" : "VEC3"
      },
      {
         "bufferView" : 1,
         "byteOffset" : 169920,
         "componentType" : 5126,
         "count" : 3600,
         "max" : [ 0.9998004, 0.9989663, 0.9989283 ],
         "min" : [ -0.9998003, -0.9989663, -0.9989283 ],
         "name" : "accessor_normal_m1-PolyPaper9_-345386",
         "type" : "VEC3"
      },
      {
         "bufferView" : 1,
         "byteOffset" : 249696,
         "componentType" : 5126,
         "count" : 3048,
         "max" : [ 0.9985201, 0.9996559, 0.9993221 ],
         "min" : [ -0.9985201, -0.9996559, -0.9993221 ],
         "name" : "accessor_normal_m2-PolyPaper9_-345392",
         "type" : "VEC3"
      },
      {
         "bufferView" : 1,
         "byteOffset" : 322848,
         "componentType" : 5126,
         "count" : 3048,
         "max" : [ 0.9997522, 0.9984798, 0.9958513 ],
         "min" : [ -0.9997522, -0.9984798, -0.9958513 ],
         "name" : "accessor_normal_m3-PolyPaper5_-345398",
         "type" : "VEC3"
      },
      {
         "bufferView" : 1,
         "byteOffset" : 401184,
         "componentType" : 5126,
         "count" : 3480,
         "max" : [ 0.9991211, 0.9996992, 0.9989766 ],
         "min" : [ -0.9991211, -0.9996991, -0.9989766 ],
         "name" : "accessor_normal_m4-PolyPaper5_-345404",
         "type" : "VEC3"
      },
      {
         "bufferView" : 1,
         "byteOffset" : 0,
         "componentType" : 5126,
         "count" : 5280,
         "max" : [ 1.570963, 3.691925, 0.5596468 ],
         "min" : [ -0.7619525, -1.065294, -1.845408 ],
         "name" : "accessor_position_m0-PolyPaper21_-345380",
         "type" : "VEC3"
      },
      {
         "bufferView" : 1,
         "byteOffset" : 126720,
         "componentType" : 5126,
         "count" : 3600,
         "max" : [ 1.523148, 2.769314, 0.4682983 ],
         "min" : [ -0.6128299, -2.199777, -1.652921 ],
         "name" : "accessor_position_m1-PolyPaper9_-345386",
         "type" : "VEC3"
      },
      {
         "bufferView" : 1,
         "byteOffset" : 213120,
         "componentType" : 5126,
         "count" : 3048,
         "max" : [ 1.186796, 0.2620672, 0.4873048 ],
         "min" : [ -0.7771103, -2.376121, -2.67437 ],
         "name" : "accessor_position_m2-PolyPaper9_-345392",
         "type" : "VEC3"
      },
      {
         "bufferView" : 1,
         "byteOffset" : 286272,
         "componentType" : 5126,
         "count" : 3048,
         "max" : [ 1.329466, -0.1407695, 0.7018995 ],
         "min" : [ -0.001556813, -2.022844, -1.231793 ],
         "name" : "accessor_position_m3-PolyPaper5_-345398",
         "type" : "VEC3"
      },
      {
         "bufferView" : 1,
         "byteOffset" : 359424,
         "componentType" : 5126,
         "count" : 3480,
         "max" : [ 1.618586, 2.676669, 0.7058838 ],
         "min" : [ -0.7574195, -1.390861, -1.836143 ],
         "name" : "accessor_position_m4-PolyPaper5_-345404",
         "type" : "VEC3"
      }
   ],
   "asset" : {
      "copyright" : "Unknown",
      "generator" : "glTF 1-to-2 Upgrader for Google Blocks",
      "version" : "2.0"
   },
   "bufferViews" : [
      {
         "buffer" : 0,
         "byteLength" : 55356,
         "byteOffset" : 0,
         "name" : "ushortBufferView",
         "target" : 34963
      },
      {
         "buffer" : 0,
         "byteLength" : 442944,
         "byteOffset" : 55356,
         "byteStride" : 12,
         "name" : "vec3BufferView",
         "target" : 34962
      },
      {
         "buffer" : 0,
         "byteLength" : 295296,
         "byteOffset" : 498300,
         "byteStride" : 16,
         "name" : "vec4BufferView",
         "target" : 34962
      }
   ],
   "buffers" : [
      {
         "byteLength" : 793596,
         "name" : "model",
         "uri" : "model.bin"
      }
   ],
   "materials" : [
      {
         "alphaMode" : "OPAQUE",
         "doubleSided" : false,
         "name" : "BlocksPaper",
         "pbrMetallicRoughness" : {
            "baseColorFactor" : [ 1, 1, 1, 1 ],
            "metallicFactor" : 0,
            "roughnessFactor" : 0.6
         }
      },
      {
         "alphaMode" : "BLEND",
         "doubleSided" : false,
         "name" : "BlocksGlass",
         "pbrMetallicRoughness" : {
            "baseColorFactor" : [ 0.2, 0.2, 1, 0.3 ],
            "metallicFactor" : 1,
            "roughnessFactor" : 0.4
         }
      },
      {
         "alphaMode" : "OPAQUE",
         "doubleSided" : true,
         "name" : "BlocksGem",
         "pbrMetallicRoughness" : {
            "baseColorFactor" : [ 1, 0.4, 1, 1 ],
            "metallicFactor" : 0,
            "roughnessFactor" : 0.1
         }
      }
   ],
   "meshes" : [
      {
         "name" : "mesh_m0-PolyPaper21_-345380",
         "primitives" : [
            {
               "attributes" : {
                  "COLOR_0" : 0,
                  "NORMAL" : 10,
                  "POSITION" : 15
               },
               "indices" : 5,
               "material" : 0,
               "mode" : 4
            }
         ]
      },
      {
         "name" : "mesh_m1-PolyPaper9_-345386",
         "primitives" : [
            {
               "attributes" : {
                  "COLOR_0" : 1,
                  "NORMAL" : 11,
                  "POSITION" : 16
               },
               "indices" : 6,
               "material" : 0,
               "mode" : 4
            }
         ]
      },
      {
         "name" : "mesh_m2-PolyPaper9_-345392",
         "primitives" : [
            {
               "attributes" : {
                  "COLOR_0" : 2,
                  "NORMAL" : 12,
                  "POSITION" : 17
               },
               "indices" : 7,
               "material" : 0,
               "mode" : 4
            }
         ]
      },
      {
         "name" : "mesh_m3-PolyPaper5_-345398",
         "primitives" : [
            {
               "attributes" : {
                  "COLOR_0" : 3,
                  "NORMAL" : 13,
                  "POSITION" : 18
               },
               "indices" : 8,
               "material" : 0,
               "mode" : 4
            }
         ]
      },
      {
         "name" : "mesh_m4-PolyPaper5_-345404",
         "primitives" : [
            {
               "attributes" : {
                  "COLOR_0" : 4,
                  "NORMAL" : 14,
                  "POSITION" : 19
               },
               "indices" : 9,
               "material" : 0,
               "mode" : 4
            }
         ]
      }
   ],
   "nodes" : [
      {
         "mesh" : 4,
         "name" : "node_MeshObject-1264811008-PolyPaper5"
      },
      {
         "mesh" : 3,
         "name" : "node_MeshObject-1836890112-PolyPaper5"
      },
      {
         "mesh" : 0,
         "name" : "node_MeshObject1112670208-PolyPaper21"
      },
      {
         "mesh" : 1,
         "name" : "node_MeshObject1313918976-PolyPaper9"
      },
      {
         "mesh" : 2,
         "name" : "node_MeshObject1885998080-PolyPaper9"
      }
   ],
   "scene" : 0,
   "scenes" : [
      {
         "extras" : {},
         "name" : "defaultScene",
         "nodes" : [ 2, 3, 4, 1, 0 ]
      }
   ]
}
